HIERARCHY
ROOT Hips
{
	OFFSET 0.00000 0.00000 0.00000
	CHANNELS 6 Xposition Yposition Zposition Zrotation Yrotation Xrotation 
	JOINT LHipJoint
	{
		OFFSET 0 0 0
		CHANNELS 3 Zrotation Yrotation Xrotation
		JOINT LeftHip
		{
			OFFSET 1.84395 -1.68683 0.74144
			CHANNELS 3 Zrotation Yrotation Xrotation
			JOINT LeftKnee
			{
				OFFSET 2.27037 -6.23779 0.00000
				CHANNELS 3 Zrotation Yrotation Xrotation
				JOINT LeftAnkle
				{
					OFFSET 2.56918 -7.05877 0.00000
					CHANNELS 3 Zrotation Yrotation Xrotation
					JOINT LeftToe
					{
						OFFSET 0.22276 -0.61202 1.71784
						CHANNELS 3 Zrotation Yrotation Xrotation
						End Site
						{
							OFFSET 0.00000 -0.00000 0.91613
						}
					}
				}
			}
		}
	}
	JOINT RHipJoint
	{
		OFFSET 0 0 0
		CHANNELS 3 Zrotation Yrotation Xrotation
		JOINT RightHip
		{
			OFFSET -1.76833 -1.68684 0.74144
			CHANNELS 3 Zrotation Yrotation Xrotation
			JOINT RightKnee
			{
				OFFSET -2.49360 -6.85110 0.00000
				CHANNELS 3 Zrotation Yrotation Xrotation
				JOINT RightAnkle
				{
					OFFSET -2.55538 -7.02085 0.00000
					CHANNELS 3 Zrotation Yrotation Xrotation
					JOINT RightToe
					{
						OFFSET -0.21516 -0.59115 1.68050
						CHANNELS 3 Zrotation Yrotation Xrotation
						End Site
						{
							OFFSET -0.00000 -0.00000 0.89604
						}
					}
				}
			}
		}
	}
	JOINT lowerback
	{
		OFFSET 0 0 0
		CHANNELS 3 Zrotation Yrotation Xrotation
		JOINT Chest
		{
			OFFSET 0.06382 1.72312 -0.19613
			CHANNELS 3 Zrotation Yrotation Xrotation
			JOINT Chest2
			{
				OFFSET -0.00055 1.73507 0.23859
				CHANNELS 3 Zrotation Yrotation Xrotation
				JOINT lowerneck
				{
					OFFSET 0 0 0
					CHANNELS 3 Zrotation Yrotation Xrotation
					JOINT Neck
					{
						OFFSET 0.03638 1.65562 0.09633
						CHANNELS 3 Zrotation Yrotation Xrotation
						JOINT Head
						{
							OFFSET 0.06388 1.62807 -0.32386
							CHANNELS 3 Zrotation Yrotation Xrotation
							End Site
							{
								OFFSET 0.00995 1.67644 -0.12021
							}
						}
					}
				}
				JOINT LeftCollar
				{
					OFFSET 0 0 0
					CHANNELS 3 Zrotation Yrotation Xrotation
					JOINT LeftShoulder
					{
						OFFSET 3.09648 1.42991 0.28122
CHANNELS 3 Zrotation Xrotation Yrotation
						JOINT LeftElbow
						{
OFFSET 0 -5.118780 -0.000000
CHANNELS 3 Zrotation Xrotation Yrotation
							JOINT LeftWrist
							{
OFFSET 0 -3.599710 0.000000
CHANNELS 3 Zrotation Xrotation Yrotation
								JOINT lhand
								{
									OFFSET 0 0 0
CHANNELS 3 Zrotation Xrotation Yrotation
									JOINT LFingers
									{
OFFSET 0 -0.628770 0.000000
CHANNELS 3 Zrotation Xrotation Yrotation
										End Site
										{
OFFSET 0 -0.506930 0.000000
										}
									}
								}
								JOINT LThumb
								{
OFFSET 0 0.000000 0.000000
CHANNELS 3 Zrotation Xrotation Yrotation
									End Site
									{
OFFSET 0 -0.514670 0.514670
									}
								}
							}
						}
					}
				}
				JOINT RightCollar
				{
					OFFSET 0 0 0
					CHANNELS 3 Zrotation Yrotation Xrotation
					JOINT RightShoulder
					{
						OFFSET -3.33565 1.14597 0.05047
CHANNELS 3 Zrotation Xrotation Yrotation
						JOINT RightElbow
						{
OFFSET 0 -5.490200 0.000000
CHANNELS 3 Zrotation Xrotation Yrotation
							JOINT RightWrist
							{
OFFSET 0 -3.206590 -0.000000
CHANNELS 3 Zrotation Xrotation Yrotation
								JOINT rhand
								{
									OFFSET 0 0 0
CHANNELS 3 Zrotation Xrotation Yrotation
									JOINT RFingers
									{
OFFSET 0 -0.691880 0.000000
CHANNELS 3 Zrotation Xrotation Yrotation
										End Site
										{
OFFSET 0 -0.557810 0.000000
										}
									}
								}
								JOINT RThumb
								{
OFFSET 0 0.000000 0.000000
CHANNELS 3 Zrotation Xrotation Yrotation
									End Site
									{
OFFSET 0 -0.566330 0.566330
									}
								}
							}
						}
					}
				}
			}
		}
	}
}
MOTION
Frames: 17
Frame Time: .0083333
-0.3888 17.4761 7.3470 -7.6352 -0.0273 5.7860 0.0000 0.0000 0.0000 -20.3179 -34.8209 23.3893 0.0597 -1.5763 -4.3361 -5.0752 38.1805 -30.0229 0.0214 0.9444 2.5957 0.0000 0.0000 0.0000 28.4207 22.4529 9.4506 -0.0067 -0.5274 1.4491 0.5180 -17.4354 -19.2699 -0.0384 -1.2649 3.4780 5.8846 1.5979 1.3162 0.8097 2.6319 -8.9982 -2.6771 0.8431 -10.1018 -9.6957 -11.6585 -2.9818 9.3335 -17.3645 21.3190 3.0246 -8.2961 8.8160 -0.0000 -0.0000 0.0000 0.1142 11.3511 -25.5857 11.3605 -18.8387 1.8907 15.2942 18.818 11.2262 0.0 0.0 0.0 -7.1250 0.0 0.0 -8.3013 18.4215 -5.3087 -0.0000 -0.0000 0.0000 4.0864 10.0448 11.7026 -11.8615 -19.5966 -2.0556 2.6494 39.1834 33.6124 0.0 0.0 0.0 7.1250 0.0 -0.0 39.5783 58.9408 -14.935
-0.3893 17.4762 7.3480 -7.6215 0.0250 5.7535 0.0000 0.0000 0.0000 -20.3939 -34.8898 23.4879 0.0597 -1.5770 -4.3381 -5.0510 38.1701 -30.1999 0.0241 1.0017 2.7535 0.0000 0.0000 0.0000 28.4436 22.4572 9.5426 -0.0062 -0.5082 1.3966 0.5251 -17.5150 -19.3295 -0.0384 -1.2641 3.4759 5.8759 1.5819 1.3115 0.7914 2.6071 -8.9806 -2.6891 0.8318 -10.0806 -9.7003 -11.6637 -2.9711 9.4081 -17.3830 21.2603 3.0487 -8.3006 8.8033 -0.0000 0.0000 0.0000 0.1571 11.3282 -25.6338 11.3527 -18.8268 1.8882 15.3497 18.7885 11.255 0.0 0.0 0.0 -7.1250 0.0 0.0 -8.2621 18.3884 -5.2892 -0.0000 0.0000 0.0000 4.1187 10.015 11.5748 -11.8505 -19.58 -2.0519 2.6835 39.2856 33.5525 0.0 0.0 0.0 7.1250 0.0 -0.0 39.5489 58.8864 -14.8685
-0.3902 17.4777 7.3504 -7.5850 0.1527 5.6624 0.0000 0.0000 0.0000 -20.4514 -34.8550 23.5523 0.0599 -1.5786 -4.3425 -5.0476 38.1164 -30.0216 0.0192 0.8953 2.4607 0.0000 0.0000 0.0000 28.5081 22.5152 9.7876 -0.0053 -0.4708 1.2937 0.5481 -17.7451 -19.4764 -0.0426 -1.3322 3.6632 5.8247 1.5312 1.3518 0.7920 2.5372 -8.9531 -2.6546 0.8023 -10.0811 -9.6682 -11.6636 -2.9535 9.3987 -17.3781 21.2013 3.0435 -8.2987 8.7753 0.0000 -0.0000 0.0000 0.1628 11.3268 -25.6441 11.3457 -18.8162 1.8859 15.3521 18.8379 11.271 0.0 0.0 0.0 -7.1250 0.0 0.0 -8.2602 18.3719 -5.291 0.0000 -0.0000 0.0000 4.1097 9.9849 11.4871 -11.8207 -19.5353 -2.042 2.6478 39.4054 33.5006 0.0 0.0 0.0 7.1250 0.0 -0.0 39.4622 58.8541 -14.7977
-0.3908 17.4780 7.3523 -7.5640 0.2153 5.6268 0.0000 0.0000 0.0000 -20.4749 -34.8269 23.5795 0.0604 -1.5859 -4.3625 -5.0738 38.1276 -29.8276 0.0139 0.7607 2.0905 0.0000 0.0000 0.0000 28.5352 22.5389 9.9008 -0.0049 -0.4526 1.2437 0.5635 -17.8708 -19.5232 -0.0440 -1.3540 3.7235 5.8301 1.5300 1.2962 0.7635 2.5270 -8.9042 -2.6845 0.7994 -9.9918 -9.6288 -11.6878 -2.9171 9.4072 -17.4074 21.0923 3.0405 -8.3126 8.7316 -0.0000 -0.0000 0.0000 0.203 11.248 -25.6961 11.3265 -18.7871 1.8797 15.3139 18.8911 11.2683 0.0 0.0 0.0 -7.1250 0.0 0.0 -8.2870 18.3772 -5.3075 -0.0000 -0.0000 0.0000 4.1369 9.9013 11.4318 -11.8002 -19.5043 -2.0351 2.5849 39.4226 33.518 0.0 0.0 0.0 7.1250 0.0 -0.0 39.4208 58.8819 -14.8058
-0.3909 17.4779 7.3528 -7.5537 0.1831 5.6281 0.0000 0.0000 0.0000 -20.5326 -34.8568 23.6450 0.0607 -1.5901 -4.3741 -5.0979 38.1947 -29.8732 0.0144 0.7738 2.1266 0.0000 0.0000 0.0000 28.5158 22.5225 9.8846 -0.0050 -0.4569 1.2554 0.5621 -17.8423 -19.4858 -0.0412 -1.3108 3.6043 5.8167 1.5529 1.2463 0.7557 2.5516 -8.8835 -2.6855 0.8143 -9.9361 -9.6566 -11.6928 -2.8326 9.4523 -17.4145 20.9809 3.0653 -8.3202 8.6858 0.0000 -0.0000 0.0000 0.1987 11.2176 -25.719 11.3213 -18.7791 1.8781 15.3025 18.8683 11.2325 0.0 0.0 0.0 -7.1250 0.0 0.0 -8.2954 18.4145 -5.3061 0.0000 -0.0000 0.0000 4.1312 9.8913 11.5184 -11.8098 -19.5188 -2.0383 2.5585 39.289 33.5701 0.0 0.0 0.0 7.1250 0.0 -0.0 39.4493 58.9285 -14.8641
-0.3909 17.4782 7.3526 -7.5452 0.1515 5.6297 0.0000 0.0000 0.0000 -20.5389 -34.8378 23.6408 0.0607 -1.5891 -4.3713 -5.0714 38.1598 -29.9768 0.0194 0.8982 2.4687 0.0000 0.0000 0.0000 28.4996 22.5327 9.8666 -0.0052 -0.4675 1.2847 0.5528 -17.7908 -19.5040 -0.0430 -1.3380 3.6794 5.7980 1.5608 1.2348 0.7597 2.5602 -8.8794 -2.6711 0.8207 -9.9245 -9.6768 -11.6948 -2.7684 9.4505 -17.4081 20.8856 3.0738 -8.3235 8.6427 0.0000 -0.0000 0.0000 0.1785 11.2422 -25.6818 11.3496 -18.8221 1.8872 15.226 19.0168 11.1354 0.0 0.0 0.0 -7.1250 0.0 0.0 -8.3503 18.5187 -5.3225 0.0000 -0.0000 0.0000 4.1245 9.9089 11.6027 -11.8271 -19.5448 -2.0441 2.6015 39.1385 33.6328 0.0 0.0 0.0 7.1250 0.0 -0.0 39.5543 58.9676 -14.9501
-0.3901 17.4782 7.3524 -7.5644 0.1328 5.6329 0.0000 0.0000 0.0000 -20.4601 -34.7526 23.5585 0.0607 -1.5895 -4.3724 -5.0485 38.0933 -29.9232 0.0198 0.9091 2.4988 0.0000 0.0000 0.0000 28.5109 22.5295 9.8422 -0.0055 -0.4773 1.3115 0.5450 -17.7423 -19.5099 -0.0430 -1.3387 3.6812 5.8320 1.5645 1.2307 0.7604 2.5669 -8.8776 -2.6897 0.8215 -9.9185 -9.6558 -11.7144 -2.7880 9.3801 -17.4198 20.8813 3.0450 -8.3326 8.6374 -0.0000 -0.0000 0.0000 0.1702 11.2746 -25.6179 11.3893 -18.8825 1.9 15.0827 19.2369 10.9673 0.0 0.0 0.0 -7.1250 0.0 0.0 -8.4532 18.6995 -5.3553 -0.0000 -0.0000 0.0000 4.1549 9.9114 11.5323 -11.8354 -19.5574 -2.0469 2.6827 39.161 33.6463 0.0 0.0 0.0 7.1250 0.0 -0.0 39.6448 58.9596 -14.9837
-0.3890 17.4782 7.3524 -7.5343 0.1082 5.6341 0.0000 0.0000 0.0000 -20.4863 -34.7137 23.5170 0.0599 -1.5796 -4.3451 -5.0612 38.0990 -29.8302 0.0167 0.8341 2.2926 0.0000 0.0000 0.0000 28.4599 22.5164 9.8221 -0.0056 -0.4836 1.3288 0.5363 -17.6899 -19.5204 -0.0441 -1.3550 3.7263 5.8161 1.5723 1.2197 0.7455 2.5741 -8.8728 -2.6970 0.8260 -9.9055 -9.6486 -11.7157 -2.7827 9.3823 -17.4197 20.8515 3.0454 -8.3327 8.6258 -0.0000 -0.0000 0.0000 0.1616 11.3136 -25.5827 11.4230 -18.9337 1.9109 15.0313 19.2586 10.8615 0.0 0.0 0.0 -7.1250 0.0 0.0 -8.4910 18.8106 -5.3587 -0.0000 -0.0000 0.0000 4.1835 9.9161 11.4849 -11.8380 -19.5612 -2.0477 2.6674 39.2223 33.6511 0.0 0.0 0.0 7.1250 0.0 -0.0 39.6353 58.9669 -14.9865
-0.3884 17.4776 7.3525 -7.4643 0.0842 5.6281 0.0000 0.0000 0.0000 -20.5778 -34.6923 23.4999 0.0588 -1.5641 -4.3024 -5.0746 38.1200 -29.7900 0.0134 0.7468 2.0525 0.0000 0.0000 0.0000 28.3755 22.5186 9.8276 -0.0056 -0.4836 1.3289 0.5328 -17.6659 -19.5191 -0.0480 -1.4139 3.8884 5.7386 1.5757 1.2112 0.7306 2.5714 -8.8680 -2.6691 0.8307 -9.8963 -9.6605 -11.6969 -2.7089 9.4330 -17.3964 20.7486 3.0729 -8.3237 8.5807 0.0000 -0.0000 0.0000 0.1439 11.3414 -25.5556 11.4271 -18.9399 1.9122 15.1076 19.2247 10.9001 0.0 0.0 0.0 -7.1250 0.0 0.0 -8.4368 18.7665 -5.332 0.0000 -0.0000 0.0000 4.1972 9.9323 11.4797 -11.8423 -19.5677 -2.0492 2.5764 39.2195 33.6481 0.0 0.0 0.0 7.1250 0.0 -0.0 39.5464 58.9852 -14.9636
-0.3882 17.4769 7.3528 -7.4423 0.0690 5.6089 0.0000 0.0000 0.0000 -20.6180 -34.6740 23.5193 0.0586 -1.5623 -4.2975 -5.0722 38.1190 -29.8083 0.0123 0.7166 1.9694 0.0000 0.0000 0.0000 28.3651 22.5376 9.8578 -0.0056 -0.4830 1.3273 0.5403 -17.7001 -19.4891 -0.0461 -1.3861 3.8120 5.6875 1.5675 1.2231 0.7448 2.5589 -8.8653 -2.6249 0.8292 -9.9034 -9.6593 -11.6789 -2.6851 9.3980 -17.3622 20.7282 3.0676 -8.3118 8.5623 -0.0000 0.0000 0.0000 0.1014 11.3622 -25.5382 11.4008 -18.9001 1.9037 15.3197 19.0607 11.0422 0.0 0.0 0.0 -7.1250 0.0 0.0 -8.2857 18.608 -5.2639 -0.0000 0.0000 0.0000 4.1847 9.9679 11.4997 -11.8513 -19.5813 -2.0522 2.5774 39.1511 33.628 0.0 0.0 0.0 7.1250 0.0 -0.0 39.5267 58.9693 -14.9391
-0.3883 17.4763 7.3525 -7.4450 0.0577 5.5960 0.0000 0.0000 0.0000 -20.6274 -34.6688 23.5514 0.0592 -1.5702 -4.3194 -5.0595 38.1022 -29.8585 0.0139 0.7610 2.0915 0.0000 0.0000 0.0000 28.3745 22.5410 9.8620 -0.0058 -0.4900 1.3464 0.5414 -17.7081 -19.4912 -0.0435 -1.3468 3.7036 5.6501 1.5588 1.2403 0.7680 2.5479 -8.8662 -2.5789 0.8275 -9.9177 -9.6119 -11.6647 -2.7349 9.2938 -17.3257 20.7873 3.0275 -8.2964 8.5732 0.0000 -0.0000 0.0000 0.0577 11.3942 -25.5144 11.3903 -18.8841 1.9003 15.3458 18.9066 11.2348 0.0 0.0 0.0 -7.1250 0.0 0.0 -8.2650 18.4093 -5.2872 0.0000 -0.0000 0.0000 4.1663 10.0035 11.558 -11.8586 -19.5922 -2.0546 2.6397 39.038 33.6738 0.0 0.0 0.0 7.1250 0.0 -0.0 39.6327 58.9908 -15.0086
-0.3884 17.4755 7.3513 -7.4922 0.0495 5.5789 0.0000 0.0000 0.0000 -20.5393 -34.5866 23.5234 0.0597 -1.5763 -4.3361 -5.0240 38.0192 -29.8560 0.0160 0.8159 2.2424 0.0000 0.0000 0.0000 28.4279 22.5028 9.8509 -0.0060 -0.5000 1.3739 0.5331 -17.6514 -19.4875 -0.0438 -1.3501 3.7127 5.6873 1.5593 1.2642 0.7803 2.5535 -8.8579 -2.5877 0.8277 -9.9220 -9.5426 -11.6578 -2.7998 9.2292 -17.3076 20.8281 2.9941 -8.2846 8.5843 -0.0000 0.0000 0.0000 0.0627 11.4168 -25.5701 11.4019 -18.9017 1.9041 15.1623 18.7608 11.4253 0.0 0.0 0.0 -7.1250 0.0 0.0 -8.3914 18.2266 -5.4041 -0.0000 0.0000 0.0000 4.1938 9.9994 11.5001 -11.8500 -19.5793 -2.0518 2.6928 39.0786 33.6876 0.0 0.0 0.0 7.1250 0.0 -0.0 39.6968 58.9894 -15.0367
-0.3879 17.4753 7.3511 -7.5435 0.0396 5.5540 0.0000 0.0000 0.0000 -20.4881 -34.5418 23.5448 0.0599 -1.5789 -4.3434 -4.9947 37.9664 -29.9163 0.0198 0.9083 2.4966 0.0000 0.0000 0.0000 28.4946 22.4777 9.8701 -0.0061 -0.5042 1.3855 0.5277 -17.6087 -19.4746 -0.0431 -1.3393 3.6829 5.7500 1.5601 1.2841 0.7852 2.5601 -8.8502 -2.6185 0.8262 -9.9233 -9.5113 -11.6539 -2.8536 9.2096 -17.3006 20.8606 2.9801 -8.2778 8.5995 0.0000 -0.0000 0.0000 0.0775 11.46 -25.6669 11.4090 -18.9124 1.9064 15.1315 18.6154 11.4778 0.0 0.0 0.0 -7.1250 0.0 0.0 -8.4123 18.175 -5.4275 0.0000 -0.0000 0.0000 4.2309 9.9978 11.3966 -11.8242 -19.5405 -2.0431 2.6964 39.2453 33.6045 0.0 0.0 0.0 7.1250 0.0 -0.0 39.6146 58.924 -14.9352
-0.3875 17.4762 7.3515 -7.5354 0.0260 5.5517 0.0000 0.0000 0.0000 -20.5627 -34.6237 23.6316 0.0601 -1.5817 -4.3510 -5.0261 38.0609 -29.9995 0.0205 0.9254 2.5436 0.0000 0.0000 0.0000 28.4883 22.5006 9.8837 -0.0061 -0.5025 1.3808 0.5297 -17.6248 -19.4802 -0.0403 -1.2954 3.5620 5.7230 1.5537 1.2830 0.7940 2.5509 -8.8611 -2.5935 0.8237 -9.9368 -9.5136 -11.6290 -2.8344 9.2264 -17.2674 20.8353 2.9918 -8.2624 8.5856 0.0000 -0.0000 0.0000 0.0546 11.5397 -25.6952 11.4171 -18.9248 1.909 15.1689 18.617 11.3988 0.0 0.0 0.0 -7.1250 0.0 0.0 -8.3871 18.2532 -5.3963 0.0000 -0.0000 0.0000 4.2228 10.044 11.4279 -11.8126 -19.5231 -2.0392 2.6517 39.3002 33.5259 0.0 0.0 0.0 7.1250 0.0 -0.0 39.4917 58.8729 -14.8293
-0.3879 17.4772 7.3508 -7.5552 0.0143 5.5690 0.0000 0.0000 0.0000 -20.5551 -34.6934 23.6550 0.0602 -1.5834 -4.3556 -5.0619 38.1452 -30.0057 0.0182 0.8703 2.3920 0.0000 0.0000 0.0000 28.5093 22.5391 9.8602 -0.0061 -0.5053 1.3884 0.5396 -17.6815 -19.4622 -0.0343 -1.1959 3.2880 5.7034 1.5477 1.2725 0.8198 2.5432 -8.8716 -2.5541 0.8224 -9.9447 -9.5224 -11.5981 -2.7962 9.2692 -17.2282 20.7752 3.0154 -8.2439 8.5587 -0.0000 0.0000 0.0000 0.0162 11.5897 -25.6755 11.4198 -18.9288 1.9099 15.1539 18.627 11.3383 0.0 0.0 0.0 -7.1250 0.0 0.0 -8.3982 18.3161 -5.3918 -0.0000 0.0000 0.0000 4.1992 10.0774 11.4656 -11.8135 -19.5244 -2.0395 2.6399 39.3185 33.4914 0.0 0.0 0.0 7.1250 0.0 -0.0 39.4451 58.8486 -14.7845
-0.3877 17.4772 7.3505 -7.5895 0.0125 5.5800 0.0000 0.0000 0.0000 -20.4945 -34.6950 23.6303 0.0602 -1.5833 -4.3553 -5.0576 38.1324 -29.9941 0.0178 0.8622 2.3697 0.0000 0.0000 0.0000 28.5422 22.5433 9.8349 -0.0062 -0.5092 1.3993 0.5428 -17.6920 -19.4425 -0.0303 -1.1228 3.0867 5.7313 1.5580 1.2455 0.8228 2.5570 -8.8659 -2.5666 0.8279 -9.9204 -9.4961 -11.6034 -2.8101 9.2532 -17.2316 20.7596 3.0052 -8.2446 8.5523 -0.0000 0.0000 0.0000 0.0211 11.6056 -25.6984 11.4148 -18.9213 1.9083 15.1454 18.6332 11.3026 0.0 0.0 0.0 -7.1250 0.0 0.0 -8.4047 18.353 -5.3891 -0.0000 0.0000 0.0000 4.2246 10.0647 11.3425 -11.7982 -19.5014 -2.0344 2.6442 39.453 33.449 0.0 0.0 0.0 7.1250 0.0 -0.0 39.4060 58.8147 -14.7338
-0.3871 17.4771 7.3507 -7.5994 0.0139 5.5741 0.0000 0.0000 0.0000 -20.4835 -34.6779 23.6302 0.0603 -1.5846 -4.3590 -5.0539 38.1271 -30.0067 0.0187 0.8823 2.4251 0.0000 0.0000 0.0000 28.5465 22.5275 9.8419 -0.0061 -0.5058 1.3899 0.5369 -17.6538 -19.4443 -0.0324 -1.1617 3.1940 5.7504 1.5708 1.2324 0.8109 2.5732 -8.8577 -2.5908 0.8345 -9.9008 -9.4440 -11.6331 -2.8344 9.1702 -17.2581 20.7630 2.9657 -8.2591 8.5481 0.0000 0.0000 0.0000 0.0415 11.6221 -25.6715 11.4248 -18.9365 1.9115 15.0371 18.9087 11.194 0.0 0.0 0.0 -7.1250 0.0 0.0 -8.4819 18.4707 -5.4174 0.0000 0.0000 0.0000 4.255 10.0561 11.2489 -11.7839 -19.4798 -2.0297 2.6319 39.5564 33.3779 0.0 0.0 0.0 7.1250 0.0 -0.0 39.3219 58.7619 -14.6446
